<?xml version="1.0" encoding="utf-8"?>
<!-- Generator: Adobe Illustrator 25.4.1, SVG Export Plug-In . SVG Version: 6.00 Build 0)  -->
<svg version="1.1" id="Layer_1" xmlns="http://www.w3.org/2000/svg" xmlns:xlink="http://www.w3.org/1999/xlink" x="0px" y="0px"
	 viewBox="0 0 90.3 70.1" style="enable-background:new 0 0 90.3 70.1;" xml:space="preserve">
<style type="text/css">
	.st0{fill-rule:evenodd;clip-rule:evenodd;fill:url(#SVGID_1_);}
	.st1{fill-rule:evenodd;clip-rule:evenodd;fill:url(#SVGID_00000148642622967484515920000014969980047771472272_);}
	.st2{fill-rule:evenodd;clip-rule:evenodd;fill:url(#SVGID_00000096033345675104710650000005633364152011911838_);}
	.st3{fill-rule:evenodd;clip-rule:evenodd;fill:url(#SVGID_00000110441278688078320860000013653982552516133284_);}
	.st4{fill-rule:evenodd;clip-rule:evenodd;fill:url(#SVGID_00000013153586220692756350000013260960676838363779_);}
	.st5{fill-rule:evenodd;clip-rule:evenodd;fill:url(#SVGID_00000047739543685238863270000004516371317104148126_);}
	.st6{fill:#976F26;}
	.st7{font-family:'Montserrat-Regular';}
	.st8{font-size:9.5264px;}
</style>
<g>
	<g>
		<g>
			
				<linearGradient id="SVGID_1_" gradientUnits="userSpaceOnUse" x1="32.6074" y1="1253.6914" x2="33.9135" y2="1253.6914" gradientTransform="matrix(1 0 0 1 0 -1230.4486)">
				<stop  offset="0" style="stop-color:#EFB31E"/>
				<stop  offset="1" style="stop-color:#875C24"/>
			</linearGradient>
			<polygon class="st0" points="32.6,18.5 32.6,26.8 33.9,27.9 33.9,20 33,19 			"/>
			
				<linearGradient id="SVGID_00000129913081222832599630000006262112761782266258_" gradientUnits="userSpaceOnUse" x1="52.1357" y1="1254.0914" x2="56.2645" y2="1254.0914" gradientTransform="matrix(1 0 0 1 0 -1230.4486)">
				<stop  offset="0" style="stop-color:#EFB31E"/>
				<stop  offset="1" style="stop-color:#875C24"/>
			</linearGradient>
			
				<polygon style="fill-rule:evenodd;clip-rule:evenodd;fill:url(#SVGID_00000129913081222832599630000006262112761782266258_);" points="
				53.4,28.5 53.4,13.9 52.7,14.7 52.1,15.4 52.1,29.1 54.4,31.4 55.5,32.5 56.3,33.3 56.3,31.4 54,29.1 			"/>
			
				<linearGradient id="SVGID_00000101820604217942524370000013650646564497705111_" gradientUnits="userSpaceOnUse" x1="33.9767" y1="1254.0914" x2="38.1056" y2="1254.0914" gradientTransform="matrix(1 0 0 1 0 -1230.4486)">
				<stop  offset="0" style="stop-color:#EFB31E"/>
				<stop  offset="1" style="stop-color:#875C24"/>
			</linearGradient>
			
				<polygon style="fill-rule:evenodd;clip-rule:evenodd;fill:url(#SVGID_00000101820604217942524370000013650646564497705111_);" points="
				38.1,29.1 38.1,15.4 37.5,14.7 36.8,13.9 36.8,28.5 36.3,29.1 34,31.4 34,33.3 34.8,32.5 35.4,31.9 35.8,31.4 			"/>
			
				<linearGradient id="SVGID_00000183245386111166240460000001754254701256271269_" gradientUnits="userSpaceOnUse" x1="56.3278" y1="1253.6914" x2="57.6278" y2="1253.6914" gradientTransform="matrix(1 0 0 1 0 -1230.4486)">
				<stop  offset="0" style="stop-color:#EFB31E"/>
				<stop  offset="1" style="stop-color:#875C24"/>
			</linearGradient>
			
				<polygon style="fill-rule:evenodd;clip-rule:evenodd;fill:url(#SVGID_00000183245386111166240460000001754254701256271269_);" points="
				57.2,19 56.3,20 56.3,27.9 57.6,26.8 57.6,18.5 			"/>
			
				<linearGradient id="SVGID_00000112617986519628015040000013190717117156521655_" gradientUnits="userSpaceOnUse" x1="35.7" y1="1250.4414" x2="54.5" y2="1250.4414" gradientTransform="matrix(1 0 0 1 0 -1230.4486)">
				<stop  offset="0" style="stop-color:#EFB31E"/>
				<stop  offset="1" style="stop-color:#875C24"/>
			</linearGradient>
			
				<polygon style="fill-rule:evenodd;clip-rule:evenodd;fill:url(#SVGID_00000112617986519628015040000013190717117156521655_);" points="
				49.6,31.8 49.6,9.8 48.3,8.3 48.3,16.1 47.1,17.2 47,17.3 46.4,17.9 46.1,18.1 46.1,19.9 47.1,19 48.1,18.1 48.3,17.9 48.3,20.5 
				46.5,22.1 46.5,22.2 46.5,22.2 46.4,22.3 46.1,22.6 46,22.6 45.2,23.3 44.1,22.3 43.9,22.1 42.2,20.5 45.2,23.3 42.1,20.5 
				42.1,20.5 41.9,20.3 41.9,19 42.4,18.5 43.9,17.2 45,16.1 45.9,15.3 45.9,1.3 44.5,2.9 44.5,14.7 43.9,15.3 43.8,15.4 43.1,16.1 
				41.9,17.2 41.9,8.3 40.6,9.8 40.6,31.8 40.1,32.3 35.7,36.7 35.7,38.6 37.6,36.7 41.9,32.3 41.9,22.1 42.1,22.3 43,23.2 
				43.2,23.3 44.5,24.6 44.5,30.9 45.7,32.3 45.9,32.5 45.9,24.6 47.2,23.3 48.3,22.3 48.3,32.3 52.7,36.7 54.5,38.6 54.5,36.7 
				50.2,32.3 			"/>
			
				<linearGradient id="SVGID_00000145029254102469236390000002284354187833391034_" gradientUnits="userSpaceOnUse" x1="41.8764" y1="1266.9915" x2="48.1764" y2="1266.9915" gradientTransform="matrix(1 0 0 1 0 -1230.4486)">
				<stop  offset="0" style="stop-color:#EFB31E"/>
				<stop  offset="1" style="stop-color:#875C24"/>
			</linearGradient>
			
				<polygon style="fill-rule:evenodd;clip-rule:evenodd;fill:url(#SVGID_00000145029254102469236390000002284354187833391034_);" points="
				41.9,36.5 44,38.6 45,39.5 45.9,38.6 48.2,36.5 45,33.5 			"/>
		</g>
		<g>
			<path class="st6" d="M7.4,47.9c0,0.1,0.1,0.4,0.1,0.7c0,0.4,0.1,0.6,0.1,0.8c0,0.1,0,0.1,0,0.2c-0.2,0-0.3,0-0.5,0
				c-0.3-0.5-0.5-0.8-0.7-0.9c-0.2-0.2-0.5-0.4-0.9-0.6c-0.3-0.1-0.6-0.2-1-0.2c-0.7,0-1.3,0.3-1.8,0.9c-0.5,0.6-0.8,1.5-0.8,2.8
				c0,0.6,0.1,1.1,0.3,1.7s0.5,1,0.9,1.3s0.9,0.5,1.4,0.5c0.3,0,0.6,0,0.9-0.1c0.2,0,0.3-0.1,0.4-0.2c0.1-0.1,0.1-0.2,0.1-0.3
				c0-0.2,0-0.6,0-1s0-0.7,0-0.9c0-0.1-0.1-0.1-0.1-0.1s-0.1,0-0.3-0.1l-0.6-0.1c-0.1,0-0.2-0.1-0.2-0.1c0-0.1,0-0.1,0-0.1
				c0-0.1,0-0.1,0-0.2c0.1,0,0.1,0,0.2,0c0.4,0,0.8,0,1.2,0c0.1,0,0.2,0,0.4,0h1h0.4c0,0,0.2,0,0.4,0c0,0.1,0,0.2,0,0.3
				c0,0,0,0.1,0,0.2c-0.1,0-0.2,0.1-0.4,0.2c-0.2,0.1-0.3,0.1-0.3,0.1s-0.1,0.1-0.1,0.2c0,0.1,0,0.3,0,0.7c0,0.5,0,0.8,0,0.9
				c0,0.3,0,0.5,0,0.5c0,0.2,0,0.2-0.1,0.3s-0.5,0.2-1.1,0.4c-0.6,0.1-1.3,0.2-2.1,0.2c-0.6,0-1,0-1.5-0.1c-0.4-0.1-0.8-0.2-1-0.4
				c-0.4-0.2-0.7-0.5-1-0.8s-0.5-0.7-0.6-1.1c0-0.9-0.1-1.4-0.1-2s0.1-1.2,0.4-1.8c0.2-0.4,0.5-0.9,0.9-1.2c0.4-0.4,0.8-0.6,1.4-0.9
				c0.6-0.2,1.2-0.3,1.8-0.3c0.1,0,0.2,0,0.4,0c0.5,0,1,0.1,1.4,0.2C6.8,47.6,7.1,47.8,7.4,47.9z"/>
			<path class="st6" d="M8.5,55.4V55c0.1,0,0.2-0.1,0.4-0.1c0.3-0.1,0.5-0.1,0.6-0.2c0.1,0,0.2-0.2,0.3-0.4L11,51l1.5-3.8
				c0.1,0,0.3,0,0.4,0h0.3l0.1,0.1l1.1,2.5c0.2,0.5,0.5,1.1,0.7,1.6s0.4,0.9,0.5,1.2c0.1,0.2,0.2,0.5,0.3,0.9
				c0.1,0.2,0.2,0.5,0.3,0.8c0.1,0.2,0.1,0.3,0.2,0.3c0.1,0.1,0.2,0.1,0.4,0.1c0.2,0,0.3,0.1,0.5,0.1c0,0.1,0,0.2,0,0.3v0.1
				c-0.3,0-0.6,0-1,0s-0.7,0-1,0s-0.6,0-0.7,0l-1.1,0.1h-0.3c0-0.1,0-0.3,0-0.4l0.7-0.1c0.2-0.1,0.3-0.1,0.4-0.1l0.1-0.1
				c0-0.1,0-0.1,0-0.2L14,53.8l-0.5-1.2h-2.4c-0.1,0.2-0.3,0.7-0.5,1.5c-0.1,0.2-0.1,0.4-0.1,0.4c0,0.1,0,0.2,0.1,0.2
				c0.1,0.1,0.3,0.1,0.5,0.2c0,0,0.2,0,0.4,0.1c0,0.1,0,0.3,0,0.3v0.1c-0.3,0-0.9,0-1.8-0.1H9.4C9.1,55.3,8.8,55.4,8.5,55.4
				L8.5,55.4L8.5,55.4z M11.4,52c1,0,1.5,0,1.7,0h0.2c-0.1-0.4-0.3-0.8-0.5-1.3s-0.4-0.9-0.5-1.1L11.4,52z"/>
			<path class="st6" d="M17.3,54.9c0.1,0,0.3-0.1,0.5-0.1s0.4-0.1,0.4-0.1c0.2,0,0.3,0,0.3-0.1s0-0.2,0-0.2v-0.8v-0.8v-0.5v-0.6
				v-0.6v-1.4v-0.6V49c0-0.4-0.1-0.7-0.1-0.7s-0.1-0.1-0.4-0.2c0,0-0.1,0-0.2-0.1c-0.1,0-0.2-0.1-0.3-0.1c-0.1,0-0.2-0.1-0.3-0.1
				c0-0.1,0-0.2,0-0.2v-0.1h0.1c0.1,0,0.5,0,1.1,0h0.9H20c0.3,0,0.6,0,1.1-0.1c0.1,0,0.2,0,0.2,0c0.1,0,0.1,0,0.1,0s0,0.1,0,0.2
				c0,0.1,0,0.2-0.1,0.2c0,0-0.1,0.1-0.3,0.1l-0.8,0.2h-0.1v0.1v0.2v0.4v0.1V49c0,0,0,0.1,0,0.3c0,0.1,0,0.1,0,0.2
				c0,0.1,0,0.2,0,0.3c0,0.2,0,0.5,0,0.7s0,0.5,0,0.7c0,0.1,0,0.2,0,0.4v2.9c0,0.1,0,0.2,0.1,0.2h0.6h0.4h0.4c0.7,0,1.2-0.1,1.6-0.2
				c0.3-0.1,0.5-0.2,0.6-0.3s0.3-0.3,0.3-0.4c0.1-0.1,0.2-0.4,0.3-0.7h0.2c0.1,0,0.2,0,0.3,0v0.2c0,0.3,0,0.8-0.1,1.6
				c0,0.3-0.1,0.5-0.1,0.5c-0.1,0-0.2,0-0.2,0h-0.2H24c0,0-0.3,0-0.7,0c-0.1,0-0.5,0-1.2,0s-1.4,0-2.1,0h-1.3c-0.5,0-0.9,0-1.4,0.1
				h-0.1h-0.1v-0.1C17.2,55.1,17.2,55,17.3,54.9z"/>
			<path class="st6" d="M24.9,55.4V55c0.1,0,0.2-0.1,0.4-0.1c0.3-0.1,0.5-0.1,0.6-0.2c0.1,0,0.2-0.2,0.3-0.4l1.2-3.3l1.5-3.8
				c0.1,0,0.3,0,0.4,0h0.3l0.1,0.1l1.1,2.5c0.2,0.5,0.5,1.1,0.7,1.6s0.4,0.9,0.5,1.2c0.1,0.2,0.2,0.5,0.3,0.9
				c0.1,0.2,0.2,0.5,0.3,0.8c0.1,0.2,0.1,0.3,0.2,0.3c0.1,0.1,0.2,0.1,0.4,0.1s0.3,0.1,0.5,0.1c0,0.1,0,0.2,0,0.3v0.1
				c-0.3,0-0.6,0-1,0s-0.7,0-1,0s-0.6,0-0.7,0l-1.1,0.1h-0.3c0-0.1,0-0.3,0-0.4l0.7-0.1c0.2-0.1,0.3-0.1,0.4-0.1l0.1-0.1
				c0-0.1,0-0.1,0-0.2l-0.2-0.6l-0.5-1.2h-2.4c-0.1,0.2-0.3,0.7-0.5,1.5c-0.1,0.2-0.1,0.4-0.1,0.4c0,0.1,0,0.2,0.1,0.2
				c0.1,0.1,0.3,0.1,0.5,0.2c0,0,0.2,0,0.4,0.1c0,0.1,0,0.3,0,0.3v0.1c-0.3,0-0.9,0-1.8-0.1H26c-0.3,0-0.6,0.1-0.9,0.1L24.9,55.4
				L24.9,55.4z M27.8,52c1,0,1.5,0,1.7,0h0.2c-0.1-0.4-0.3-0.8-0.5-1.3s-0.4-0.9-0.5-1.1L27.8,52z"/>
			<path class="st6" d="M36.3,55.4V55c0.1,0,0.2-0.1,0.4-0.1c0.3-0.1,0.5-0.1,0.6-0.2c0.1,0,0.2-0.2,0.3-0.4l1.2-3.3l1.5-3.8
				c0.1,0,0.3,0,0.4,0H41l0.1,0.1l1.1,2.5c0.2,0.5,0.5,1.1,0.7,1.6s0.4,0.9,0.5,1.2c0.1,0.2,0.2,0.5,0.3,0.9
				c0.1,0.2,0.2,0.5,0.3,0.8c0.1,0.2,0.1,0.3,0.2,0.3c0.1,0.1,0.2,0.1,0.4,0.1s0.3,0.1,0.5,0.1c0,0.1,0,0.2,0,0.3v0.1
				c-0.3,0-0.6,0-1,0s-0.7,0-1,0s-0.6,0-0.7,0l-1.1,0.1H41c0-0.1,0-0.3,0-0.4l0.7-0.1c0.2-0.1,0.3-0.1,0.4-0.1l0.1-0.1
				c0-0.1,0-0.1,0-0.2L42,53.8l-0.5-1.2h-2.4c-0.1,0.2-0.3,0.7-0.5,1.5c-0.1,0.2-0.1,0.4-0.1,0.4c0,0.1,0,0.2,0.1,0.2
				c0.1,0.1,0.3,0.1,0.5,0.2c0,0,0.2,0,0.4,0.1c0,0.1,0,0.3,0,0.3v0.1c-0.3,0-0.9,0-1.8-0.1h-0.3c-0.3,0-0.6,0.1-0.9,0.1L36.3,55.4
				L36.3,55.4z M39.2,52c1,0,1.5,0,1.7,0h0.2c-0.1-0.4-0.3-0.8-0.5-1.3s-0.4-0.9-0.5-1.1L39.2,52z"/>
			<path class="st6" d="M44,47.9v-0.5c0.2,0,0.3,0,0.4,0c0.5,0.1,1.2,0.1,2,0.1c0.1,0,0.4,0,0.8,0c0.3,0,0.5,0,0.6-0.1h0.5
				c0,0.3,0,0.5,0,0.5C47.9,48,47.6,48,47.6,48c-0.2,0-0.3,0.1-0.4,0.2c0,0-0.1,0.1-0.1,0.2v0.1l0.2,0.5c0.1,0.4,0.4,1,0.7,1.7
				l0.7,1.6c0.1,0.3,0.3,0.6,0.4,0.9l0.4-0.9l0.7-2l0.2-0.4c0-0.1,0-0.1,0.1-0.3c0.1-0.4,0.2-0.6,0.3-0.8s0.1-0.3,0.1-0.5
				c0-0.1,0-0.1-0.1-0.2c-0.1-0.1-0.3-0.1-0.6-0.2c-0.1,0-0.1,0-0.2,0c-0.1,0-0.2,0-0.3,0c0-0.1,0-0.1,0-0.2c0-0.1,0-0.1,0-0.3
				c0.1,0,0.3,0,0.6,0c0.4,0,0.7,0,1,0s0.6,0,0.9,0c0.2,0,0.4,0,0.6-0.1v0.2c0,0,0,0.1,0,0.2c-0.5,0.2-0.8,0.3-0.9,0.4
				c-0.1,0-0.1,0.1-0.2,0.2c-0.2,0.3-0.4,0.8-0.7,1.7l-0.8,2c-0.1,0.2-0.2,0.4-0.2,0.6c-0.1,0.2-0.2,0.5-0.3,0.7
				c0,0.1-0.1,0.3-0.3,0.7l-0.2,0.3c-0.2,0.6-0.3,1-0.4,1.2c-0.2,0-0.3,0-0.3,0c-0.1,0-0.2,0-0.3,0c0-0.1-0.1-0.2-0.1-0.4
				c0-0.1-0.2-0.6-0.5-1.3l-1.2-2.6l-0.7-1.7c-0.5-0.8-0.7-1.2-0.7-1.2c-0.1-0.1-0.1-0.2-0.2-0.2c-0.1,0-0.3-0.1-0.5-0.1L44,47.9z"
				/>
			<path class="st6" d="M52.8,47.4c0.2,0,0.4,0,0.6,0.1c0.3,0,0.7,0.1,1.1,0.1c0.1,0,0.5,0,1.1,0c0.9,0,1.8-0.1,2.5-0.1h1.1
				c0.3,0,0.6,0,1.1,0.1c0.1,0.1,0.1,0.2,0.1,0.3v1.3v0.3v0.1h-0.3c0,0-0.1,0-0.2,0c0-0.1-0.1-0.2-0.1-0.4l-0.2-0.4
				c-0.1-0.2-0.2-0.4-0.4-0.6c-0.1,0-0.2,0-0.4,0c0,0-0.2,0-0.4,0c-0.4,0-0.8,0-1.2,0c-0.5,0-1,0-1.3,0c0,0.1,0,0.5,0,1.2v1v0.8
				c0.1,0,0.2,0,0.3,0c0.7,0,1.3,0,1.6,0s0.5-0.1,0.6-0.1c0.1-0.1,0.1-0.1,0.2-0.3c0-0.1,0.1-0.4,0.2-0.9h0.1h0.4c0,0.4,0,0.6,0,0.8
				c0,0.4,0,0.7,0,0.8s0,0.2,0,0.3s0,0.3,0,0.5s0,0.4,0,0.5v0.1h-0.4c0-0.1,0-0.2-0.1-0.4c-0.1-0.4-0.2-0.6-0.2-0.7
				c0-0.1-0.1-0.1-0.2-0.2c-0.1,0-0.4,0-0.9,0c-0.6,0-1.1,0-1.4,0c0,0.1,0,0.2,0,0.2c0,0.5,0,0.9,0,1.2v1.3c0,0.2,0.1,0.3,0.2,0.3
				c0.2,0.1,0.7,0.1,1.6,0.1c0.6,0,1.1,0,1.5-0.1c0.3-0.1,0.5-0.2,0.7-0.4c0.3-0.3,0.5-0.7,0.7-1.2c0.1,0,0.2,0,0.3,0
				c0,0,0.1,0,0.2,0c0,0.1,0,0.2,0,0.3v0.2l-0.2,1.2L61,55.4c-0.3,0-0.5,0-0.6,0c-0.2,0-0.8,0-1.9-0.1c-0.7,0-1.6,0-2.6,0
				c-0.5,0-1.1,0-1.8,0.1h-0.3h-0.7V55c0.1,0,0.2,0,0.5-0.1c0.4,0,0.7-0.1,0.9-0.2c0-0.1,0.1-0.3,0.1-0.5c0-0.1,0-0.2,0-0.4v-0.2
				v-2.3v-0.7v-1v-0.7l-0.5-0.6v-0.1c0,0-0.1-0.1-0.2-0.1c0,0-0.1,0-0.2,0c-0.2,0-0.5-0.1-0.7-0.1c-0.1,0-0.2,0-0.3,0L52.8,47.4z"/>
			<path class="st6" d="M61.6,47.9v-0.4h0.5h0.2c0.2,0,0.4,0,0.5,0c0,0,0.2,0,0.4,0c0.1,0,0.1,0,0.1,0s0.2,0,0.4,0s0.3,0,0.4,0
				c0,0,0.1,0,0.2,0c0.6,0.6,1.2,1.1,1.6,1.5s1.9,1.9,4.4,4.4v-0.2v-0.7c0-0.4,0-0.8,0-1s0-0.5,0-0.9c0-0.3,0-0.6,0-0.9
				c0-0.5-0.1-0.9-0.1-0.9c0-0.3,0-0.4-0.1-0.5s-0.3-0.2-0.6-0.2c-0.2,0-0.4-0.1-0.5-0.1v-0.4h0.2h1.2h1.4c0.1,0,0.2,0,0.3,0V48
				c-0.1,0-0.2,0.1-0.3,0.1c-0.3,0.1-0.4,0.1-0.5,0.1c-0.2,0.1-0.3,0.2-0.3,0.2s-0.1,0.1-0.1,0.2c0,0,0,0.1,0,0.3c0,0.1,0,0.2,0,0.5
				c0,0.6,0,1.1,0,1.4c0,0.1,0,0.2,0,0.4l0.1,2.2c0,0.2,0,0.3,0,0.3v0.6v0.3v0.3c0,0.2,0,0.3,0,0.3v0.3h-0.7l-0.7-0.8l-1.5-1.5
				l-1.2-0.9l-0.8-0.8c-0.5-0.5-1-0.9-1.4-1.3l-1-0.9l0.1,2.3c0,0.1,0,0.3,0,0.4v0.4v0.8c0,0.3,0,0.7,0.1,1.1c0,0.1,0,0.2,0,0.2
				s0,0.1,0.1,0.2c0.2,0.1,0.5,0.1,1.1,0.1c0,0,0.1,0,0.2,0v0.5h-0.2c-0.1,0-0.5,0-1.2-0.1c-0.7,0-1.1,0-1.3,0s-0.3,0-0.4,0
				c0,0-0.1,0-0.2,0c0-0.1,0-0.2,0-0.2s0-0.1,0-0.2c0.1,0,0.2,0,0.3,0c0,0,0.1,0,0.2,0c0.3,0,0.6,0,0.6-0.1c0.1-0.1,0.1-0.2,0.1-0.4
				c0-0.7,0-1.1,0-1.2v-0.3v-2v-1.3c0-0.5,0-0.8-0.1-1c0-0.1-0.1-0.2-0.1-0.2c-0.1-0.1-0.3-0.3-0.5-0.3C62.3,48,62,48,61.6,47.9z"/>
			<path class="st6" d="M72.4,47.9v-0.5c0.1,0,0.2,0,0.2,0c0.2,0,0.4,0,0.7,0c0.5,0,0.9,0,1,0c0.3,0,0.7,0,1,0s0.6,0,0.8,0
				c0.2,0,0.4,0,0.5,0v0.1v0.4l0,0c-0.2,0-0.5,0-0.7,0s-0.4,0-0.5,0.1c0,0.1-0.1,0.3-0.1,0.7c0,0.1,0,0.2,0,0.3v0.2v0.6v0.5v1.1
				l0.1,1.6c0,0.4,0.1,0.8,0.3,1.1c0.1,0.2,0.3,0.4,0.6,0.5c0.3,0.2,0.7,0.3,1,0.3c0.4,0,0.8-0.1,1.1-0.2c0.2-0.1,0.4-0.2,0.6-0.3
				s0.3-0.2,0.4-0.4s0.3-0.4,0.3-0.6c0.1-0.3,0.1-0.7,0.1-1.3c0-1-0.1-2.1-0.2-3.4v-0.3c0-0.2-0.1-0.4-0.1-0.5
				c-0.1-0.1-0.3-0.2-0.4-0.2h-0.6h-0.1v-0.5h0.5l1.2,0.1c0.4,0,0.8,0,1.1-0.1h0.1c0,0.1,0,0.2,0,0.3c0,0,0,0.1,0,0.2
				c-0.2,0-0.3,0.1-0.5,0.1c-0.3,0-0.4,0.1-0.5,0.1s-0.1,0.1-0.1,0.2c0,0.1,0,0.2,0,0.3s0,0.3,0,0.5c0,0.1,0,0.3,0,0.3s0,0.2,0,0.3
				c0,0.3,0,0.6,0,0.9l0.1,1.3c0,0.8,0,1.4-0.1,1.7s-0.1,0.5-0.2,0.7c-0.2,0.2-0.4,0.5-0.6,0.7c-0.3,0.2-0.6,0.4-1.1,0.5
				c-0.4,0.1-0.9,0.2-1.5,0.2s-1.2-0.1-1.6-0.3c-0.5-0.2-0.8-0.4-1-0.7s-0.4-0.6-0.5-1.1c-0.1-0.3-0.1-0.7-0.1-1.3v-3
				c0-0.7,0-1.1-0.1-1.2c-0.1-0.1-0.4-0.2-0.8-0.2C72.6,48,72.5,48,72.4,47.9z"/>
			<path class="st6" d="M82.1,47.4c0.2,0,0.4,0,0.6,0.1c0.3,0,0.7,0.1,1.1,0.1c0.1,0,0.5,0,1.1,0c0.9,0,1.8-0.1,2.5-0.1h1.1
				c0.3,0,0.6,0,1.1,0.1c0.1,0.1,0.1,0.2,0.1,0.3v1.3v0.3v0.1h-0.3c0,0-0.1,0-0.2,0c0-0.1-0.1-0.2-0.1-0.4L89,48.7
				c-0.1-0.2-0.2-0.4-0.4-0.6c-0.1,0-0.2,0-0.4,0c0,0-0.2,0-0.4,0c-0.4,0-0.8,0-1.2,0c-0.5,0-1,0-1.3,0c0,0.1,0,0.5,0,1.2v1v0.8
				c0.1,0,0.2,0,0.3,0c0.7,0,1.3,0,1.6,0c0.3,0,0.5-0.1,0.6-0.1c0.1-0.1,0.1-0.1,0.2-0.3c0-0.1,0.1-0.4,0.2-0.9h0.1h0.4
				c0,0.4,0,0.6,0,0.8c0,0.4,0,0.7,0,0.8s0,0.2,0,0.3s0,0.3,0,0.5s0,0.4,0,0.5v0.1h-0.4c0-0.1,0-0.2-0.1-0.4
				C88.1,52,88,51.8,88,51.7c0-0.1-0.1-0.1-0.2-0.2c-0.1,0-0.4,0-0.9,0c-0.6,0-1.1,0-1.4,0c0,0.1,0,0.2,0,0.2c0,0.5,0,0.9,0,1.2v1.3
				c0,0.2,0.1,0.3,0.2,0.3c0.2,0.1,0.7,0.1,1.6,0.1c0.6,0,1.1,0,1.5-0.1c0.3-0.1,0.5-0.2,0.7-0.4c0.3-0.3,0.5-0.7,0.7-1.2
				c0.1,0,0.2,0,0.3,0c0,0,0.1,0,0.2,0c0,0.1,0,0.2,0,0.3v0.2L90,54.8l-0.1,0.7c-0.3,0-0.5,0-0.6,0c-0.2,0-0.8,0-1.9-0.1
				c-0.7,0-1.6,0-2.6,0c-0.5,0-1.1,0-1.8,0.1h-0.3H82v-0.4c0.1,0,0.2,0,0.5-0.1c0.4,0,0.7-0.1,0.9-0.2c0-0.1,0.1-0.3,0.1-0.5
				c0-0.1,0-0.2,0-0.4v-0.2v-2.3v-0.7v-1V49l-0.1-0.7v-0.1c0,0-0.1-0.1-0.2-0.1c0,0-0.1,0-0.2,0c-0.2,0-0.5-0.1-0.7-0.1
				c-0.1,0-0.2,0-0.3,0L82.1,47.4z"/>
		</g>
	</g>
	<g>
		<g>
			<g>
				<path class="st6" d="M17.2,67C17.2,67,17.2,67,17.2,67c-0.1,0-0.2,0-0.3-0.1c-0.9-1.2-1.9-2.5-2.5-4C14,62,14,61.1,14.4,60.3
					c0.4-0.8,1.1-1.4,2-1.6c0.2,0,0.3-0.1,0.5-0.1c0.1,0,0.2,0,0.2,0l0,0l0,0c0.9,0,1.7,0.4,2.3,1c0.6,0.6,0.8,1.4,0.8,2.2
					c0,0.5-0.2,1-0.4,1.4c-0.6,1.4-1.5,2.6-2.3,3.6C17.4,66.9,17.3,67,17.2,67z M17.2,58.8c-0.1,0-0.1,0-0.2,0c-0.2,0-0.3,0-0.5,0.1
					c-0.8,0.2-1.5,0.7-1.8,1.5c-0.4,0.7-0.4,1.6,0,2.4c0.6,1.5,1.6,2.7,2.5,3.9c0,0,0.1,0.1,0.1,0.1l0,0c0,0,0,0,0.1-0.1
					c0.8-1,1.7-2.2,2.3-3.5c0.2-0.4,0.4-0.9,0.4-1.4c0.1-0.8-0.2-1.5-0.7-2.1C18.8,59.1,18,58.8,17.2,58.8z M17.2,62.6
					C17.2,62.6,17.2,62.6,17.2,62.6c-0.6,0-1-0.5-1-1l0,0c0-0.5,0.4-1,1-1c0,0,0,0,0,0c0.3,0,0.5,0.1,0.7,0.3
					c0.2,0.2,0.3,0.4,0.3,0.7c0,0.3-0.1,0.5-0.3,0.7C17.7,62.5,17.4,62.6,17.2,62.6z M16.4,61.6c0,0.4,0.3,0.8,0.7,0.8
					c0.2,0,0.4-0.1,0.5-0.2c0.1-0.1,0.2-0.3,0.2-0.5c0-0.2-0.1-0.4-0.2-0.5c-0.1-0.1-0.3-0.2-0.5-0.2c0,0,0,0,0,0
					C16.8,60.9,16.5,61.2,16.4,61.6L16.4,61.6z"/>
			</g>
			<g>
				<path class="st6" d="M17.3,68.8c-1.4,0-2.6-0.1-3.8-0.5c-0.4-0.1-0.8-0.3-1.1-0.6c-0.4-0.3-0.4-0.8,0-1.1
					c0.2-0.2,0.6-0.4,0.8-0.5c0.1,0,0.2,0,0.2,0.1c0,0.1-0.1,0.2-0.1,0.2c-0.2,0.1-0.4,0.2-0.6,0.3c-0.4,0.3-0.4,0.6,0,0.9
					c0.4,0.3,1,0.5,1.5,0.6c2.2,0.4,4.3,0.5,6.4-0.2c0.3-0.1,0.7-0.3,0.9-0.5c0.3-0.2,0.3-0.5,0-0.8c-0.2-0.1-0.4-0.2-0.6-0.4
					c-0.1-0.1-0.2-0.1-0.1-0.3c0-0.1,0.2-0.1,0.3-0.1c0.3,0.2,0.6,0.3,0.8,0.5c0.3,0.3,0.3,0.8,0,1c-0.3,0.2-0.6,0.5-1,0.6
					C19.8,68.7,18.5,68.8,17.3,68.8z"/>
			</g>
			<g>
				<path class="st6" d="M16.9,67.4c1.1,0,1.8-0.1,2.6-0.3c0.1,0,0.3-0.1,0.4-0.2c0.2-0.1,0.2-0.3,0-0.4c-0.3-0.1-0.7-0.2-1.1-0.4
					c-0.1,0-0.1,0-0.2,0c-0.1,0-0.1-0.1-0.1-0.2c0,0,0.1-0.1,0.1-0.1c0.6,0.1,1.1,0.2,1.6,0.5c0.3,0.2,0.3,0.6-0.1,0.8
					c-0.3,0.2-0.7,0.4-1.1,0.4c-1.5,0.3-2.9,0.3-4.4-0.1c-0.3-0.1-0.5-0.2-0.7-0.4c-0.3-0.2-0.2-0.5,0-0.7c0.4-0.4,1-0.5,1.6-0.5
					c0,0,0.1,0.1,0.2,0.1c0,0.1-0.1,0.2-0.1,0.2c-0.2,0.1-0.4,0.1-0.6,0.1c-0.2,0.1-0.5,0.2-0.7,0.3c-0.2,0.1-0.2,0.3,0,0.4
					c0.4,0.2,0.8,0.3,1.2,0.4C16.1,67.4,16.7,67.4,16.9,67.4z"/>
			</g>
			<g>
				<path class="st6" d="M17.2,62.6C17.2,62.6,17.2,62.6,17.2,62.6c-0.6,0-1-0.5-1-1l0,0c0-0.5,0.4-0.9,1-0.9c0,0,0,0,0,0
					c0.3,0,0.5,0.1,0.7,0.3c0.2,0.2,0.3,0.4,0.3,0.7c0,0.3-0.1,0.5-0.3,0.7C17.7,62.5,17.4,62.6,17.2,62.6z M16.4,61.6
					c0,0.4,0.3,0.8,0.7,0.8c0.2,0,0.4-0.1,0.5-0.2c0.1-0.1,0.2-0.3,0.2-0.5c0-0.2-0.1-0.4-0.2-0.6c-0.1-0.1-0.3-0.2-0.5-0.2
					c0,0,0,0,0,0C16.8,60.9,16.4,61.2,16.4,61.6L16.4,61.6z"/>
			</g>
		</g>
		<text transform="matrix(1 0 0 1 22.4149 67.5137)" class="st6 st7 st8">Mulund (W)</text>
	</g>
</g>
</svg>
